<?xml version="1.0" encoding="UTF-8"?><svg id="Layer_2" xmlns="http://www.w3.org/2000/svg" viewBox="0 0 347.36 463.9"><defs><style>.cls-1{fill:#fff;}</style></defs><g id="Layer_1-2"><g id="outline"><path class="cls-1" d="M56.24,158.7c3.87,48.45,46.29,84.58,94.73,80.71,43.07-3.44,77.26-37.64,80.71-80.71,9.59-3.21,16.04-12.21,16-22.32v-17.04c.02-10.52-6.99-19.75-17.12-22.56-.82-4.9-2.16-9.7-4-14.32,3.63-6.84,4.81-14.71,3.36-22.32-3.12-16-18.08-27.36-39.44-32.8,.11-5.05,2.84-9.69,7.2-12.24,3.92-2.03,5.46-6.86,3.42-10.78-1.95-3.77-6.51-5.36-10.38-3.62-9.06,4.77-15.09,13.8-16,24-15.08-1.42-30.28-.61-45.12,2.4-21.49,3.85-41.77,12.7-59.2,25.84-16.4,13.2-24,28.56-20.96,43.12,0,1.28,.64,2.56,1.04,3.76-6.7,4.27-10.77,11.66-10.8,19.6v17.12c.08,10.21,6.79,19.19,16.56,22.16ZM132.96,42.78c21.44-3.76,71.36-8,81.52,20.48,5.36,14.88-24.56,41.68-67.52,50.08s-79.04-3.6-81.52-20.48c-3.76-25.2,42.96-45.84,67.52-50.08Zm-14.16,89.44c27.84,0,70.56-9.76,96-33.76,.46,2.01,.81,4.04,1.04,6.08,.33,4.17,3.82,7.37,8,7.36,3.36,0,8,.48,8,7.44v17.12c-.29,4.2-3.79,7.45-8,7.44-4.42,0-8,3.58-8,8,0,39.76-32.24,72-72,72s-72-32.24-72-72c-.26-4.53-4.03-8.05-8.56-8-3.99-.27-7.17-3.45-7.44-7.44v-17.12c.14-2.43,1.37-4.67,3.36-6.08,12.16,12,33.76,18.96,59.6,18.96Z"/><path class="cls-1" d="M180.56,447.9H71.92v-80c0-4.42-3.58-8-8-8s-8,3.58-8,8v80H15.92v-108.64c.04-37.21,30.23-67.36,67.44-67.36h21.36c4.4,21.65,25.51,35.64,47.16,31.24,15.74-3.2,28.04-15.5,31.24-31.24h21.52c7.15-.02,14.26,1.15,21.04,3.44,4.2,1.39,8.73-.88,10.12-5.08,1.39-4.2-.88-8.73-5.08-10.12h0c-8.41-2.8-17.22-4.23-26.08-4.24H83.36C37.34,255.95,.04,293.24,0,339.26v116.64c0,4.42,3.58,8,8,8H180.56c4.42,0,8-3.58,8-8s-3.58-8-8-8Zm-36.64-160c-10.12-.06-19.11-6.46-22.48-16h45.04c-3.38,9.57-12.41,15.97-22.56,16h0Z"/><path class="cls-1" d="M347.36,375.9c-.57-49.15-40.85-88.53-90-88-31.09,.07-60.01,15.92-76.8,42.08-7.84,11.74-12.3,25.41-12.88,39.52,0,10-.48,19.36,6.48,26.48,8.56,8.88,20.96,7.04,30.96,5.44,6.88-1.04,14-2.08,16.96,.64,3.75,5.24,3.75,12.28,0,17.52-2.08,2.16-8,2.16-10.56,2.24-5.45,.07-10.31,3.42-12.32,8.48-2.21,5.13-.89,11.09,3.28,14.8,54.96,43.92,144.96,6.64,144.88-69.2Zm-89.76,72c-13.67-.47-27.05-4.06-39.12-10.48,5.43-.47,10.57-2.69,14.64-6.32,5.3-5.45,8.18-12.8,8-20.4,.2-7.55-2.69-14.86-8-20.24-8.64-8-20.72-6.32-30.4-4.8-7.36,1.12-14.24,2.16-17.12-.8s-2.16-6.88-1.92-14.96c.49-11.45,4.17-22.54,10.64-32,13.9-21.28,37.62-34.07,63.04-34,39.76,0,72,32.24,72,72s-32.24,72-72,72h.24Z"/><path class="cls-1" d="M299.84,339.9c-11.05,0-20,8.95-20,20s8.95,20,20,20,20-8.95,20-20-8.95-20-20-20Zm0,24c-2.21,0-4-1.79-4-4s1.79-4,4-4,4,1.79,4,4-1.79,4-4,4Z"/><path class="cls-1" d="M258.08,313.74c-11.05,0-20,8.95-20,20s8.95,20,20,20,20-8.95,20-20c.04-11-8.84-19.96-19.84-20-.05,0-.11,0-.16,0Zm0,24c-2.21,0-4-1.79-4-4s1.79-4,4-4,4,1.79,4,4c-.04,2.19-1.81,3.96-4,4Z"/><path class="cls-1" d="M216.24,337.74c-11.05,0-20,8.95-20,20s8.95,20,20,20,20-8.95,20-20-8.95-20-20-20Zm0,24c-2.21,0-4-1.79-4-4s1.79-4,4-4,4,1.79,4,4c-.04,2.19-1.81,3.96-4,4Z"/><path class="cls-1" d="M274.48,380.7c-15.46,0-28,12.54-28,28s12.54,28,28,28,28-12.54,28-28-12.54-28-28-28Zm0,40c-6.63,0-12-5.37-12-12s5.37-12,12-12,12,5.37,12,12-5.37,12-12,12Z"/></g></g></svg>