<svg viewBox="0 0 24 24" xmlns="http://www.w3.org/2000/svg" xmlns:xlink="http://www.w3.org/1999/xlink"><linearGradient id="SVGID_1_" gradientUnits="userSpaceOnUse" x1="12" x2="12" y1="2" y2="22"><stop offset="0" stop-color="#00bcd4"/><stop offset="1" stop-color="#1976d2"/></linearGradient><g id="left_button"><path d="m12 2c-5.5141602 0-10 4.4863281-10 10s4.4858398 10 10 10 10-4.4863281 10-10-4.4858398-10-10-10zm0 18c-4.4111328 0-8-3.5888672-8-8s3.5888672-8 8-8 8 3.5888672 8 8-3.5888672 8-8 8zm1.7070313-10.2929687-2.2929688 2.2929687 2.2929688 2.2929688c.390625.390625.390625 1.0234375 0 1.4140625-.1953125.1953125-.4511719.2929687-.7070313.2929687s-.5117188-.0976563-.7070313-.2929688l-3-3c-.390625-.390625-.390625-1.0234375 0-1.4140625l3-3c.390625-.390625 1.0234375-.390625 1.4140625 0s.3906251 1.0234376.0000001 1.4140626z" fill="url(#SVGID_1_)"/></g></svg>