<?xml version="1.0" encoding="utf-8"?>
<!-- Generator: Adobe Illustrator 26.5.0, SVG Export Plug-In . SVG Version: 6.00 Build 0)  -->
<svg version="1.1" id="Layer_1" xmlns="http://www.w3.org/2000/svg" xmlns:xlink="http://www.w3.org/1999/xlink" x="0px" y="0px"
	 viewBox="0 0 149.07 144.2" style="enable-background:new 0 0 149.07 144.2;" xml:space="preserve">
<style type="text/css">
	.st0{fill:#FFFFFF;}
</style>
<g>
	<path class="st0" d="M26.96,82.3c-0.93,0-2.09-0.69-2.32-1.85l-3.01-12.06c-0.23-1.16,0.46-2.55,1.62-2.78
		c1.16-0.23,2.55,0.46,2.78,1.62l3.01,12.06c0.23,1.16-0.46,2.55-1.62,2.78C27.42,82.3,27.19,82.3,26.96,82.3L26.96,82.3z
		 M26.96,82.3"/>
	<path class="st0" d="M20.7,82.3H10.27c-3.48,0-6.49-1.62-8.58-4.4c-1.86-2.55-2.09-5.56-1.16-8.58c2.09-5.33,8.11-7.65,18.32-6.96
		c3.01,0.23,5.8,1.86,6.96,4.4c1.39,2.32,0.69,4.17,0.23,5.1c-1.39,2.55-4.87,3.71-11.13,3.94c-1.16,0-2.32-0.93-2.32-2.32
		c0-1.39,0.93-2.32,2.32-2.32c6.03-0.23,6.95-1.39,7.19-1.62c0,0,0-0.23-0.23-0.69C21.16,67.7,20,67,18.61,67
		c-5.33-0.46-12.05,0-13.45,3.94c-0.7,1.86,0,3.48,0.7,4.17c1.16,1.39,2.78,2.32,4.64,2.32h10.43c1.39,0,2.32,1.16,2.32,2.32
		C23.25,80.91,22.09,82.3,20.7,82.3L20.7,82.3z M20.7,82.3"/>
	<path class="st0" d="M121.55,82.3c-0.23,0-0.46,0-0.69,0c-1.16-0.23-2.09-1.62-1.62-2.78l3.01-12.05c0.23-1.16,1.62-2.09,2.78-1.62
		c1.16,0.23,2.09,1.62,1.62,2.78l-3.01,12.05C123.63,81.61,122.47,82.3,121.55,82.3L121.55,82.3z M121.55,82.3"/>
	<path class="st0" d="M138.24,82.3h-10.43c-1.39,0-2.32-1.16-2.32-2.32c0-1.16,1.16-2.32,2.32-2.32h10.43
		c1.85,0,3.71-0.93,4.64-2.32c0.46-0.69,1.39-2.32,0.69-4.17c-1.39-3.94-8.11-4.41-13.44-3.94c-1.39,0-2.78,0.93-3.25,1.86
		c-0.23,0.46-0.23,0.7-0.23,0.7s0.93,1.39,7.42,1.62c1.39,0,2.32,1.16,2.32,2.32c0,1.39-1.16,2.32-2.32,2.32
		c-6.26-0.23-9.74-1.39-11.13-3.94c-0.46-0.93-1.16-2.78,0.23-5.1c1.39-2.55,3.94-4.17,6.95-4.41c10.2-0.69,16.23,1.62,18.31,6.96
		c1.16,2.78,0.7,6.03-1.16,8.58C144.73,80.68,141.72,82.3,138.24,82.3L138.24,82.3z M138.24,82.3"/>
	<path class="st0" d="M11.66,99.92c-0.93,0-1.86-0.46-2.09-1.39l-8.11-21.1c-0.47-1.16,0-2.32,1.16-3.01
		c1.16-0.46,2.32-0.23,3.01,0.7c0.93,1.62,2.78,2.55,4.64,2.55h127.97c1.85,0,3.71-0.93,4.64-2.55c0.69-0.93,1.85-1.39,3.01-0.7
		c1.16,0.46,1.62,1.86,1.16,3.01l-8.11,21.1c-0.46,1.16-1.85,1.86-3.01,1.39c-1.16-0.46-1.86-1.86-1.39-3.01l5.56-14.61
		c-0.69,0.23-1.39,0.23-2.09,0.23H10.27c-0.69,0-1.39,0-2.09-0.23l5.56,14.61c0.47,1.16-0.23,2.55-1.39,3.01
		C12.35,99.92,11.89,99.92,11.66,99.92L11.66,99.92z M11.66,99.92"/>
	<path class="st0" d="M113.2,144.2H35.3c-4.87,0-9.27-3.01-11.13-7.65l-0.23-0.93c-0.46-1.16,0.23-2.55,1.39-3.01
		c1.16-0.47,2.55,0.23,3.01,1.39l0.23,0.93c0.93,2.78,3.71,4.64,6.72,4.64h77.9c3.01,0,5.56-1.86,6.72-4.64l0.23-0.7
		c0.46-1.16,1.86-1.86,3.01-1.39c1.16,0.46,1.85,1.86,1.39,3.01l-0.23,0.93C122.71,141.19,118.07,144.2,113.2,144.2L113.2,144.2z
		 M113.2,144.2"/>
	<path class="st0" d="M26.03,130.29c-10.9,0-18.08-7.65-19.47-20.63c-0.23-1.86,0.46-3.71,1.62-5.1c1.62-1.86,4.17-2.78,6.72-2.09
		c1.16,0.23,2.55,0.23,3.94,0c1.39-0.23,2.78-0.47,4.17-0.93c2.32-0.46,4.64-0.93,6.96-0.93c4.64,0,7.65,2.55,8.81,7.65
		c1.62,7.42,0.7,13.91-2.32,17.85C34.15,128.67,30.67,130.29,26.03,130.29L26.03,130.29z M13.74,106.88c-0.69,0-1.39,0.23-1.85,0.93
		c-0.23,0-0.7,0.7-0.47,1.39c0.7,6.26,3.25,16.46,14.84,16.46v2.32v-2.32c3.01,0,5.33-0.93,6.72-2.78
		c2.32-2.78,2.78-8.11,1.62-13.91c-0.69-3.71-2.32-3.94-4.17-3.94c-1.62,0-3.71,0.46-5.8,0.93c-1.39,0.23-3.01,0.69-4.41,0.93
		c-2.09,0.23-3.94,0.23-5.8,0C14.21,106.88,13.98,106.88,13.74,106.88L13.74,106.88z M13.74,106.88"/>
	<path class="st0" d="M122.47,130.29c-4.41,0-8.11-1.62-10.43-4.64c-3.25-3.94-4.17-10.43-2.32-17.85c1.16-5.1,3.94-7.65,8.81-7.65
		c2.09,0,4.4,0.46,6.95,0.93c1.39,0.23,2.78,0.7,4.17,0.93c1.62,0.23,3.01,0.23,3.94,0c2.78-0.46,5.1,0.23,6.96,2.09
		c1.39,1.39,1.85,3.24,1.62,5.1C140.56,122.64,133.37,130.29,122.47,130.29L122.47,130.29z M118.3,105.02
		c-1.86,0-3.48,0.23-4.17,3.94c-1.39,5.8-0.7,11.13,1.62,13.91c1.39,1.86,3.71,2.78,6.72,2.78v2.32v-2.32
		c11.59,0,14.14-10.43,14.84-16.46c0-0.7-0.23-1.39-0.46-1.62c-0.7-0.7-1.62-0.93-2.55-0.7c-1.62,0.46-3.71,0.46-5.8,0
		c-1.39-0.23-3.01-0.46-4.4-0.93C121.78,105.48,119.92,105.02,118.3,105.02L118.3,105.02z M118.3,105.02"/>
	<path class="st0" d="M74.25,72.33c-13.21,0-24.11-10.9-24.11-24.11c0-1.62,0.23-3.24,0.46-4.87c0.23-1.16,1.16-1.86,2.32-1.86
		h42.66c1.16,0,2.09,0.7,2.32,1.86c0.23,1.62,0.46,3.48,0.46,4.87C98.36,61.67,87.47,72.33,74.25,72.33L74.25,72.33z M55.01,46.14
		c0,0.7-0.23,1.39-0.23,2.09c0,10.67,8.81,19.48,19.47,19.48c10.67,0,19.47-8.81,19.47-19.48c0-0.7,0-1.39-0.23-2.09H55.01z
		 M55.01,46.14"/>
	<path class="st0" d="M102.54,46.14H46.2c-1.62,0-3.01-0.7-3.94-2.09c-0.93-1.16-1.16-2.78-0.46-4.17c0.7-1.62,1.39-3.01,2.78-4.17
		c2.09-2.09,4.87-3.25,8.11-3.25h43.82c4.87,0,9.04,3.01,10.66,7.65c0.46,1.39,0.23,3.01-0.46,4.17
		C105.32,45.44,103.93,46.14,102.54,46.14L102.54,46.14z M52.23,37.09c-1.86,0-3.48,0.7-4.64,1.86c-0.7,0.7-1.16,1.62-1.62,2.55
		l56.34-0.23c-0.93-2.55-3.48-4.4-6.26-4.4H52.23V37.09z M52.23,37.09"/>
	<path class="st0" d="M98.6,37.09H49.91c-1.39,0-2.32-0.93-2.32-2.32v-1.16c0-8.11,3.71-15.76,10.2-20.87
		c0.93-0.69,2.55-0.69,3.25,0.47c0.7,0.93,0.46,2.32-0.46,3.24c-5.1,3.94-8.11,9.74-8.35,16.23h44.05
		c-0.23-5.56-2.55-10.67-6.49-14.37c-0.46-0.46-1.16-1.16-1.86-1.62c-0.93-0.7-1.16-2.32-0.46-3.25c0.7-0.93,2.32-1.16,3.25-0.46
		c0.93,0.7,1.62,1.39,2.32,2.09c5.1,5.1,7.88,11.82,7.88,18.78v1.16C100.91,36.17,99.99,37.09,98.6,37.09L98.6,37.09z M98.6,37.09"
		/>
	<path class="st0" d="M80.05,22.72c-1.39,0-2.32-0.93-2.32-2.32V8.11c0-1.85-1.62-3.48-3.48-3.48c-1.86,0-3.48,1.62-3.48,3.48V20.4
		c0,1.39-0.93,2.32-2.32,2.32c-1.39,0-2.32-0.93-2.32-2.32V8.11c0-4.4,3.71-8.11,8.11-8.11c4.4,0,8.11,3.71,8.11,8.11V20.4
		C82.37,21.56,81.44,22.72,80.05,22.72L80.05,22.72z M80.05,22.72"/>
</g>
</svg>
