<?xml version="1.0" encoding="utf-8"?>
<!-- Generator: Adobe Illustrator 26.5.0, SVG Export Plug-In . SVG Version: 6.00 Build 0)  -->
<svg version="1.1" id="Layer_1" xmlns="http://www.w3.org/2000/svg" xmlns:xlink="http://www.w3.org/1999/xlink" x="0px" y="0px"
	 viewBox="0 0 144.2 144.2" style="enable-background:new 0 0 144.2 144.2;" xml:space="preserve">
<style type="text/css">
	.st0{fill:#FFFFFF;}
</style>
<g>
	<path class="st0" d="M140.44,0H96.22c-2.08,0-3.76,1.69-3.76,3.76v22.58c0,1.18-0.35,2.33-1.01,3.31l-5.25,7.82
		c-0.68,1.01-0.63,2.34,0.11,3.3c0.75,0.97,2.03,1.33,3.17,0.92l9.22-3.3c0.64-0.23,1.31-0.35,2-0.35h39.74
		c2.08,0,3.76-1.69,3.76-3.76V3.76C144.2,1.69,142.51,0,140.44,0L140.44,0z M139.98,33.82H100.7c-1.17,0-2.32,0.2-3.42,0.59
		l-5.19,1.86l2.87-4.27c1.13-1.68,1.73-3.64,1.73-5.66V4.22h43.29V33.82z M139.98,33.82"/>
	<path class="st0" d="M122.92,116.56h-7.04c-0.61-4.09-4.15-7.25-8.41-7.25c-4.26,0-7.8,3.15-8.41,7.25h-3.09l-3.3-7.56h12.48
		c3.54,0,6.42-2.88,6.42-6.42v-9.49c0-1.17-0.94-2.11-2.11-2.11c-1.17,0-2.11,0.95-2.11,2.11v9.49c0,1.21-0.98,2.19-2.19,2.19H51.21
		c-1.21,0-2.19-0.98-2.19-2.19V65.29c0-1.21,0.98-2.2,2.19-2.2h53.95c1.21,0,2.19,0.99,2.19,2.2v19.63c0,1.17,0.95,2.11,2.11,2.11
		c1.17,0,2.11-0.95,2.11-2.11V65.29c0-3.54-2.88-6.42-6.42-6.42H86.81v-2.8c0-3.12-1.96-5.84-4.85-6.85V38.56
		C81.96,17.3,64.67,0,43.41,0C31.68,0,20.73,5.25,13.36,14.39c-0.73,0.91-0.59,2.24,0.32,2.97c0.91,0.73,2.24,0.59,2.97-0.32
		C23.21,8.9,32.96,4.22,43.41,4.22c18.93,0,34.33,15.4,34.33,34.33v9.62l-2.23-0.53v-0.39c0-1.08-0.44-2.07-1.15-2.78V39.3
		c0-17.07-13.88-30.95-30.95-30.95c-17.07,0-30.95,13.88-30.95,30.95v5.18c-0.71,0.71-1.15,1.7-1.15,2.78v0.39l-2.23,0.53v-9.62
		c0-5.26,1.16-10.32,3.45-15.02c0.51-1.05,0.08-2.31-0.97-2.83c-1.05-0.51-2.31-0.07-2.82,0.97c-2.57,5.28-3.88,10.95-3.88,16.87
		v10.67C1.96,50.24,0,52.95,0,56.08v7.34c0,3.38,2.3,6.29,5.59,7.07l5.72,1.36v0.39c0,2.18,1.77,3.95,3.95,3.95h3.43
		c1.27,0,2.39-0.6,3.12-1.53c3.04,5.21,7.91,9.22,13.72,11.16v1.27c-6.35,1.67-12.08,5.38-16.23,10.52
		c-4.41,5.47-6.84,12.37-6.84,19.41v1.89c0,1.17,0.94,2.11,2.11,2.11c1.17,0,2.11-0.94,2.11-2.11v-1.89
		c0-11.88,7.66-22.13,18.84-25.55v1.38c0,4.35,3.54,7.88,7.88,7.88c0.46,0,0.93-0.04,1.39-0.12v1.96c0,3.54,2.88,6.42,6.42,6.42
		h12.48l-3.3,7.56H33.45c-3.29,0-5.96,2.67-5.96,5.96v11.82h-7.54c-1.8,0-3.27-1.47-3.27-3.27v-3.99c0-1.17-0.95-2.11-2.11-2.11
		c-1.17,0-2.11,0.94-2.11,2.11v3.99c0,4.13,3.36,7.49,7.49,7.49h7.54v3.52c0,1.17,0.95,2.11,2.11,2.11c1.17,0,2.11-0.95,2.11-2.11
		v-19.57c0-0.96,0.78-1.74,1.74-1.74h89.47c0.96,0,1.74,0.78,1.74,1.74v19.57c0,1.17,0.94,2.11,2.11,2.11
		c1.17,0,2.11-0.95,2.11-2.11v-19.57C128.88,119.24,126.21,116.56,122.92,116.56L122.92,116.56z M68.4,47.53h2.88v11.34H68.4V47.53z
		 M80.25,53.12c1.38,0.33,2.34,1.54,2.34,2.96v2.8H75.5v-6.89L80.25,53.12z M43.41,12.57c14.73,0,26.72,11.99,26.72,26.72v4.01H68.4
		v-0.27c0-1.58-0.96-2.92-2.46-3.43c-1.5-0.51-3.09-0.02-4.06,1.24c-2.55,3.32-5.48,4.94-8.94,4.94c-0.02,0-0.03,0-0.05,0l0.79-4.96
		c0.25-1.56-0.53-3.09-1.94-3.8c-1.42-0.72-3.12-0.44-4.23,0.69c-2.61,2.64-5.06,4.4-7.47,5.36l0.38-3.84
		c0.14-1.44-0.55-2.78-1.8-3.5c-1.25-0.72-2.76-0.64-3.93,0.2c-3.79,2.73-8.09,4.41-13.16,5.14c-1.31,0.19-2.38,1.07-2.85,2.23
		h-1.99V39.3C16.68,24.56,28.67,12.57,43.41,12.57L43.41,12.57z M6.56,66.38c-1.38-0.33-2.34-1.54-2.34-2.96v-7.34
		c0-1.42,0.96-2.63,2.34-2.96l4.75-1.13v15.52L6.56,66.38z M18.41,71.96h-2.88V47.53h2.88V71.96z M22.64,62.09V45.18
		c5.01-0.78,9.53-2.49,13.46-5.08l-0.35,3.5c-0.12,1.22,0.38,2.41,1.33,3.18c0.95,0.77,2.22,1.01,3.39,0.64
		c2.93-0.94,5.81-2.73,8.76-5.47l-0.61,3.85c-0.16,1.01,0.11,2.05,0.75,2.85c0.63,0.79,1.57,1.28,2.57,1.34
		c4.73,0.3,8.83-1.47,12.23-5.28v14.17H51.21c-3.54,0-6.42,2.88-6.42,6.42v17.52c-0.46,0.03-0.92,0.05-1.39,0.05
		C31.95,82.86,22.64,73.55,22.64,62.09L22.64,62.09z M43.41,96.51c-2.02,0-3.66-1.64-3.66-3.66v-6.04c1.19,0.17,2.41,0.27,3.66,0.27
		c0.46,0,0.92-0.01,1.39-0.04v9.19C44.36,96.42,43.89,96.51,43.41,96.51L43.41,96.51z M65,116.56l3.3-7.56h19.78l3.3,7.56H65z
		 M103.39,116.56c0.54-1.75,2.17-3.02,4.09-3.02c1.92,0,3.55,1.27,4.09,3.02H103.39z M103.39,116.56"/>
	<path class="st0" d="M70.03,94.19c-1.17,0-2.11,0.94-2.11,2.11c0,1.17,0.95,2.11,2.11,2.11h16.32c1.17,0,2.11-0.95,2.11-2.11
		c0-1.17-0.95-2.11-2.11-2.11H70.03z M70.03,94.19"/>
	<path class="st0" d="M111.55,28.11c0.68,0.39,1.43,0.59,2.18,0.59c0.75,0,1.49-0.2,2.18-0.59l9.21-5.32
		c1.36-0.79,2.18-2.2,2.18-3.77c0-1.57-0.81-2.98-2.18-3.77l-9.21-5.32c-1.36-0.79-2.99-0.79-4.35,0c-1.36,0.79-2.18,2.2-2.18,3.77
		v10.64C109.37,25.92,110.19,27.32,111.55,28.11L111.55,28.11z M113.6,13.71c0-0.03,0-0.07,0.06-0.11c0.03-0.01,0.05-0.02,0.07-0.02
		c0.03,0,0.05,0.01,0.06,0.02l9.21,5.32c0.03,0.01,0.06,0.04,0.06,0.11c0,0.07-0.04,0.1-0.06,0.11l-9.21,5.32
		c-0.03,0.02-0.07,0.04-0.13,0c-0.06-0.04-0.06-0.08-0.06-0.11V13.71z M113.6,13.71"/>
</g>
</svg>
