<svg xmlns="http://www.w3.org/2000/svg" width="19.18" height="21.92" viewBox="0 0 19.18 21.92">
  <path id="Icon_awesome-discord" data-name="Icon awesome-discord" d="M12.725,10.412A1.122,1.122,0,1,1,11.607,9.2,1.168,1.168,0,0,1,12.725,10.412ZM7.606,9.2a1.221,1.221,0,0,0,0,2.433,1.168,1.168,0,0,0,1.118-1.217A1.161,1.161,0,0,0,7.606,9.2ZM19.18,2.258V21.92c-2.761-2.44-1.878-1.632-5.085-4.614l.581,2.028H2.247A2.252,2.252,0,0,1,0,17.076V2.258A2.252,2.252,0,0,1,2.247,0H16.933A2.252,2.252,0,0,1,19.18,2.258Zm-3.124,10.39a14.677,14.677,0,0,0-1.578-6.39A5.42,5.42,0,0,0,11.4,5.107l-.153.175a7.294,7.294,0,0,1,2.729,1.392,9.313,9.313,0,0,0-8.187-.318c-.406.186-.647.318-.647.318A7.394,7.394,0,0,1,8.023,5.239l-.11-.132a5.42,5.42,0,0,0-3.08,1.151,14.677,14.677,0,0,0-1.578,6.39A3.974,3.974,0,0,0,6.6,14.314s.406-.493.734-.91a3.409,3.409,0,0,1-1.918-1.293c.161.113.427.259.449.274a7.989,7.989,0,0,0,6.839.384,6.272,6.272,0,0,0,1.26-.647,3.458,3.458,0,0,1-1.984,1.3c.329.416.723.888.723.888A4.006,4.006,0,0,0,16.056,12.648Z" fill="#fff"/>
</svg>
