<?xml version="1.0" encoding="utf-8"?>
<!-- Generator: Adobe Illustrator 26.5.0, SVG Export Plug-In . SVG Version: 6.00 Build 0)  -->
<svg version="1.1" id="Layer_1" xmlns="http://www.w3.org/2000/svg" xmlns:xlink="http://www.w3.org/1999/xlink" x="0px" y="0px"
	 viewBox="0 0 144.2 144.2" style="enable-background:new 0 0 144.2 144.2;" xml:space="preserve">
<style type="text/css">
	.st0{fill:#FFFFFF;}
</style>
<g>
	<path class="st0" d="M31.65,91.23c-2.03-0.77-4.28-0.69-6.26,0.21c-1.9,0.87-3.36,2.47-4.05,4.44c-0.28,0.8-0.42,1.64-0.42,2.49
		c0,2.89,1.66,5.53,4.26,6.79l25.58,12.77c0.73,0.33,1.17,1.08,1.12,1.88l-1.6,21.88c-0.1,1.24,0.79,2.33,2.02,2.49
		c1.28,0.09,2.39-0.86,2.49-2.14l1.61-21.88c0.2-2.68-1.24-5.21-3.65-6.4L27.28,101c-1.03-0.47-1.69-1.5-1.7-2.63
		c0-0.33,0.05-0.65,0.16-0.95c0.27-0.78,0.85-1.42,1.6-1.77c0.84-0.35,1.79-0.35,2.63,0l15.56,6.02c17.1,6.58,36.04,6.58,53.14,0
		l15.54-6.02c0.8-0.33,1.71-0.31,2.5,0.03c0.8,0.35,1.42,1,1.73,1.81c0.48,1.41-0.17,2.94-1.51,3.58l-25.58,12.77
		c-2.41,1.19-3.87,3.72-3.67,6.4l1.61,21.86c0.06,0.62,0.36,1.19,0.85,1.59c0.49,0.39,1.11,0.58,1.73,0.5
		c0.62-0.04,1.19-0.33,1.6-0.79c0.41-0.47,0.61-1.08,0.56-1.69l-1.6-21.86c-0.04-0.79,0.4-1.54,1.12-1.88l25.58-12.77
		c3.45-1.68,5.11-5.67,3.86-9.3c-1.15-3.17-4.19-5.26-7.56-5.19c-0.99,0-1.96,0.18-2.88,0.53L97,97.26
		c-6.61,2.54-13.56,4.05-20.63,4.49c7.87-2.14,12.94-9.78,11.86-17.87c-1.08-8.08-7.98-14.12-16.14-14.12S57.04,75.8,55.96,83.88
		c-1.08,8.09,3.99,15.72,11.86,17.87c-7.06-0.44-14.01-1.95-20.6-4.49L31.65,91.23z M60.47,86.05c0-4.7,2.83-8.94,7.18-10.74
		c4.34-1.8,9.35-0.81,12.67,2.52c3.32,3.33,4.32,8.33,2.52,12.67c-1.8,4.35-6.04,7.18-10.74,7.18
		C65.67,97.67,60.47,92.47,60.47,86.05L60.47,86.05z M60.47,86.05"/>
	<path class="st0" d="M13.95,125.58c0,3.51,1.93,8.56,10.74,13.21c0.56,0.3,1.23,0.36,1.84,0.16c0.61-0.2,1.1-0.65,1.37-1.23
		c0.51-1.12,0.07-2.44-1.02-3.02c-5.35-2.84-8.28-6.02-8.28-9.12c0-3.09,2.93-6.28,8.3-9.12c1.09-0.58,1.54-1.9,1.02-3.02
		c-0.27-0.59-0.77-1.04-1.38-1.24c-0.61-0.2-1.28-0.14-1.85,0.17C15.88,117.02,13.95,122.07,13.95,125.58L13.95,125.58z
		 M13.95,125.58"/>
	<path class="st0" d="M114.95,134.7c-1.09,0.58-1.54,1.9-1.02,3.02c0.27,0.59,0.77,1.04,1.38,1.24c0.61,0.2,1.28,0.14,1.85-0.17
		c8.81-4.65,10.74-9.7,10.74-13.21c0-3.51-1.93-8.56-10.74-13.21c-0.57-0.31-1.24-0.37-1.85-0.17c-0.61,0.2-1.11,0.65-1.38,1.24
		c-0.51,1.12-0.07,2.44,1.02,3.02c5.37,2.84,8.3,6.02,8.3,9.12C123.26,128.68,120.33,131.86,114.95,134.7L114.95,134.7z
		 M114.95,134.7"/>
	<path class="st0" d="M1.47,65.33l2.02,1.05c0.41,1.34,0.95,2.64,1.61,3.89l-0.7,2.16c-0.23,0.72-0.09,1.51,0.37,2.12
		c1.3,1.71,2.82,3.24,4.53,4.53c0.6,0.46,1.39,0.6,2.12,0.37l2.16-0.7c1.24,0.65,2.54,1.19,3.88,1.61l1.05,2.02
		c0.35,0.67,1,1.13,1.74,1.23c2.07,0.31,4.17,0.31,6.23,0c0.75-0.1,1.4-0.56,1.74-1.23l1.05-2.02c1.34-0.42,2.64-0.95,3.88-1.61
		l2.16,0.7c0.72,0.23,1.51,0.09,2.12-0.37c1.66-1.27,3.15-2.75,4.42-4.42c0.46-0.6,0.6-1.39,0.37-2.12l-0.7-2.16
		c0.65-1.24,1.19-2.54,1.61-3.88l2.02-1.05c0.67-0.35,1.13-1,1.23-1.74c0.31-2.07,0.31-4.17,0-6.23c-0.1-0.75-0.56-1.4-1.23-1.74
		l-2.02-1.05c-0.42-1.34-0.95-2.64-1.61-3.88l0.7-2.16c0.23-0.72,0.09-1.51-0.37-2.12c-1.27-1.66-2.75-3.15-4.42-4.42
		c-0.6-0.46-1.39-0.6-2.12-0.37l-2.16,0.7c-1.24-0.65-2.54-1.19-3.88-1.6l-1.05-2.02c-0.35-0.67-1-1.13-1.74-1.23
		c-2.07-0.33-4.17-0.33-6.23,0c-0.75,0.1-1.4,0.56-1.74,1.23l-1.05,2.02c-1.34,0.41-2.64,0.95-3.88,1.6l-2.16-0.7
		c-0.72-0.23-1.51-0.09-2.12,0.37c-1.71,1.25-3.24,2.74-4.53,4.42c-0.46,0.6-0.6,1.39-0.37,2.12l0.7,2.16
		c-0.65,1.24-1.19,2.53-1.61,3.86l-2.02,1.07c-0.67,0.35-1.13,1-1.23,1.74c-0.31,2.07-0.31,4.17,0,6.23
		C0.37,64.4,0.83,65,1.47,65.33L1.47,65.33z M4.65,59.16l1.88-1.02c0.6-0.3,1.04-0.86,1.21-1.51c0.38-1.6,1.01-3.13,1.86-4.54
		c0.36-0.58,0.44-1.28,0.23-1.93L9.3,48.28c0.58-0.65,1.21-1.27,1.86-1.86l1.98,0.63c0.64,0.2,1.34,0.12,1.91-0.23
		c1.44-0.87,3.01-1.5,4.65-1.86c0.66-0.16,1.21-0.61,1.51-1.21l0.95-1.84c0.87-0.07,1.74-0.07,2.6,0l0.95,1.84
		c0.3,0.6,0.86,1.04,1.51,1.21c1.64,0.36,3.21,0.99,4.65,1.86c0.57,0.35,1.27,0.43,1.91,0.23l1.98-0.63
		c0.65,0.58,1.27,1.21,1.86,1.86L37,50.26c-0.2,0.64-0.12,1.33,0.23,1.91c0.85,1.41,1.48,2.94,1.86,4.54
		c0.17,0.66,0.61,1.21,1.21,1.51l1.84,0.95c0,0.46,0,0.88,0,1.3s0,0.84,0,1.3l-1.84,0.95c-0.6,0.3-1.04,0.86-1.21,1.51
		c-0.38,1.6-1.01,3.13-1.86,4.54c-0.36,0.58-0.44,1.28-0.23,1.93l0.63,1.95c-0.58,0.65-1.21,1.27-1.86,1.86l-1.98-0.63
		c-0.64-0.2-1.33-0.12-1.91,0.23c-1.44,0.87-3.01,1.5-4.65,1.86c-0.66,0.16-1.21,0.61-1.51,1.21l-0.95,1.84
		c-0.87,0.07-1.74,0.07-2.6,0l-1.23-1.84c-0.3-0.6-0.86-1.04-1.51-1.21c-1.64-0.36-3.21-0.99-4.65-1.86
		c-0.57-0.35-1.27-0.43-1.91-0.23l-1.79,0.53c-0.65-0.58-1.27-1.21-1.86-1.86l0.63-1.98c0.2-0.64,0.12-1.34-0.23-1.91
		c-0.85-1.41-1.48-2.94-1.86-4.53c-0.2-0.59-0.64-1.08-1.21-1.35l-1.88-1.02c0-0.46,0-0.88,0-1.3S4.65,59.63,4.65,59.16L4.65,59.16z
		 M4.65,59.16"/>
	<path class="st0" d="M23.26,71.16c4.33,0,8.23-2.61,9.88-6.6c1.66-4,0.74-8.6-2.32-11.66c-3.06-3.06-7.66-3.97-11.66-2.32
		c-4,1.66-6.6,5.56-6.6,9.88c0,2.84,1.13,5.56,3.13,7.56C17.7,70.04,20.42,71.16,23.26,71.16L23.26,71.16z M23.26,54.42
		c2.45,0,4.65,1.47,5.59,3.73c0.94,2.26,0.42,4.86-1.31,6.59c-1.73,1.73-4.33,2.25-6.59,1.31c-2.26-0.94-3.73-3.14-3.73-5.59
		C17.22,57.13,19.92,54.43,23.26,54.42L23.26,54.42z M23.26,54.42"/>
	<path class="st0" d="M136.77,43.44c-5.63-5.24-13.49-7.36-20.99-5.66c-7.5,1.71-13.68,7.01-16.49,14.17
		c-2.82,7.16-1.91,15.25,2.43,21.61c4.33,6.36,11.53,10.16,19.22,10.16h0.86c9.39-0.35,17.66-6.31,20.94-15.12
		c3.28-8.81,0.94-18.73-5.94-25.13L136.77,43.44z M134.44,73.14c-5.14,5.44-13.03,7.28-20.04,4.66
		c-7.01-2.62-11.77-9.18-12.08-16.66c-0.18-4.93,1.61-9.74,4.98-13.35c3.35-3.64,8.01-5.77,12.95-5.93h0.67
		c7.4,0.01,14.09,4.4,17.05,11.18c2.95,6.79,1.6,14.68-3.44,20.09H134.44z M134.44,73.14"/>
	<path class="st0" d="M123.26,58.14v-5.21c0.91,0.13,1.7,0.67,2.16,1.47c0.4,0.7,1.15,1.12,1.95,1.09c0.81,0.01,1.56-0.41,1.99-1.1
		c0.43-0.69,0.47-1.55,0.1-2.27c-1.27-2.27-3.61-3.73-6.21-3.88v-1.72c0-1.28-1.04-2.33-2.33-2.33s-2.33,1.04-2.33,2.33v1.72
		c-4.02,0-7.28,3.26-7.28,7.28c0,4.02,3.26,7.28,7.28,7.28v5.26c-0.91-0.13-1.71-0.68-2.16-1.49c-0.41-0.69-1.16-1.1-1.95-1.07
		c-0.81-0.01-1.56,0.41-1.99,1.1c-0.43,0.69-0.47,1.55-0.1,2.27c1.28,2.25,3.62,3.7,6.21,3.84v1.72c0,1.28,1.04,2.33,2.33,2.33
		s2.33-1.04,2.33-2.33V72.7c4.02,0,7.28-3.26,7.28-7.28C130.54,61.4,127.28,58.14,123.26,58.14L123.26,58.14z M118.61,58.14
		c-1.28-0.2-2.24-1.27-2.33-2.56c0.06-1.3,1.04-2.37,2.33-2.56V58.14z M123.26,68.09v-5.3c1.28,0.2,2.24,1.27,2.33,2.56
		c-0.02,1.33-1.01,2.46-2.33,2.65V68.09z M123.26,68.09"/>
	<path class="st0" d="M52.19,30.51c-0.87,0.13-1.59,0.74-1.86,1.58c-0.25,0.82-0.03,1.72,0.58,2.33l8.91,8.67l-2.09,12.26
		c-0.18,0.89,0.18,1.79,0.91,2.33c0.72,0.53,1.67,0.6,2.46,0.19l11-5.77l11,5.79c0.34,0.16,0.71,0.25,1.09,0.26
		c0.69,0.01,1.35-0.29,1.8-0.81c0.45-0.53,0.64-1.22,0.52-1.91l-2.09-12.26l8.91-8.67c0.61-0.61,0.83-1.5,0.58-2.33
		c-0.27-0.84-0.99-1.45-1.86-1.58l-12.33-1.79l-5.54-11.21c-0.39-0.8-1.2-1.31-2.09-1.31c-0.89,0-1.7,0.51-2.09,1.31l-5.49,11.14
		L52.19,30.51z M68.14,31.88l3.95-8.02l3.95,8.02c0.34,0.69,1,1.17,1.77,1.28l8.84,1.28l-6.4,6.23c-0.55,0.53-0.81,1.31-0.67,2.07
		l1.51,8.81l-7.91-4.16c-0.69-0.34-1.5-0.34-2.19,0l-7.91,4.16l1.51-8.81c0.13-0.76-0.12-1.54-0.67-2.07l-6.4-6.23l8.84-1.28
		C67.14,33.06,67.8,32.58,68.14,31.88L68.14,31.88z M68.14,31.88"/>
	<path class="st0" d="M72.09,0c1.29,0,2.33,1.04,2.33,2.33V9.3c0,1.29-1.04,2.33-2.33,2.33c-1.29,0-2.33-1.04-2.33-2.33V2.33
		C69.77,1.04,70.81,0,72.09,0L72.09,0z M72.09,0"/>
	<path class="st0" d="M53.21,9.3c-0.44-0.44-1.03-0.69-1.65-0.69c-0.62,0-1.21,0.25-1.65,0.69c-0.9,0.91-0.9,2.37,0,3.28l4.95,4.95
		c0.91,0.9,2.37,0.9,3.28,0c0.44-0.44,0.69-1.03,0.69-1.65c0-0.62-0.25-1.21-0.69-1.65L53.21,9.3z M53.21,9.3"/>
	<path class="st0" d="M89.33,17.53l4.95-4.95c0.9-0.91,0.9-2.37,0-3.28c-0.44-0.44-1.03-0.69-1.65-0.69c-0.62,0-1.21,0.25-1.65,0.69
		l-4.93,4.93c-0.44,0.44-0.69,1.03-0.69,1.65c0,0.62,0.25,1.21,0.69,1.65C86.95,18.44,88.42,18.44,89.33,17.53L89.33,17.53z
		 M89.33,17.53"/>
</g>
</svg>
