<?xml version="1.0" encoding="utf-8"?>
<!-- Generator: Adobe Illustrator 26.5.0, SVG Export Plug-In . SVG Version: 6.00 Build 0)  -->
<svg version="1.1" id="Layer_1" xmlns="http://www.w3.org/2000/svg" xmlns:xlink="http://www.w3.org/1999/xlink" x="0px" y="0px"
	 viewBox="0 0 191.82 144.2" style="enable-background:new 0 0 191.82 144.2;" xml:space="preserve">
<style type="text/css">
	.st0{fill:#FFFFFF;}
</style>
<g>
	<path class="st0" d="M181.97,54.38c-5.95,2.64,4.58-2.03-5.7,2.53c-0.03,0-0.09-0.06-0.1-0.09c8.48-24.74,4.37-12.75,5.54-16.16
		c1.98-5.78-3.88-11.13-9.45-8.65l-15.17,6.76c-1.04-4.32-3.18-8.38-6.27-11.68C139.16,14.59,117.78,0,95.91,0
		c-9.62,0-19.72,2.75-30.04,8.17c-1.37,0.72-1.9,2.42-1.18,3.79c0.72,1.37,2.42,1.9,3.79,1.18c9.5-5,18.73-7.53,27.43-7.53
		c12.54,0,33.37,6.63,50.82,25.3c3.79,4.06,5.77,9.53,5.45,15.02c-1.23,20.71-10.42,42.86-22.79,59.86
		c-2.57-0.76-5.19-1.43-7.85-2.01c10.81-14.08,21.82-35.71,23.16-58.29c0.2-3.45-1.05-6.9-3.44-9.46
		c-10.66-11.41-28.81-22.93-45.34-22.93S61.22,24.63,50.57,36.04c-2.39,2.56-3.65,6.01-3.44,9.46
		c1.34,22.58,12.35,44.21,23.15,58.29c-2.66,0.58-5.27,1.25-7.84,2.01C50.06,88.79,40.87,66.63,39.65,45.94
		c-0.33-5.49,1.66-10.96,5.45-15.01c3.47-3.72,7.66-7.41,12.1-10.68c1.25-0.92,1.52-2.68,0.6-3.93c-0.92-1.25-2.68-1.52-3.93-0.6
		c-4.72,3.47-9.17,7.4-12.88,11.37c-3.09,3.31-5.23,7.36-6.27,11.68l-15.17-6.76c-5.58-2.48-11.43,2.87-9.45,8.65
		c0.44,1.3-1.82-5.3,5.54,16.16c-0.01,0.03-0.07,0.08-0.09,0.09c-0.02,0-4.24-1.88-5.7-2.53c-5.58-2.49-11.43,2.88-9.45,8.65
		l1.8,5.26c5.12,14.92,18.55,25.7,34.22,27.48l13.86,1.57c2.04,3.56,4.24,7,6.57,10.3c-0.65,0.23-1.29,0.46-1.93,0.71
		c-4.63,1.77-7.74,6.29-7.74,11.25v14.12c0,7.16,6.99,12.21,13.79,9.96c21.9-7.26,48-7.26,69.92,0c3.67,1.22,7.71,0.32,10.52-2.35
		c1.13-1.07,1.17-2.85,0.11-3.97c-1.07-1.13-2.85-1.17-3.97-0.11c-1.33,1.26-3.16,1.67-4.89,1.09c-23.04-7.64-50.39-7.64-73.45,0
		c-3.15,1.05-6.4-1.3-6.4-4.62v-14.12c0-2.64,1.66-5.05,4.13-5.99c24-9.15,53.81-9.22,78,0c2.47,0.94,4.13,3.35,4.13,5.99v6.88
		c0,1.55,1.26,2.81,2.81,2.81s2.81-1.26,2.81-2.81v-6.88c0-4.96-3.11-9.48-7.74-11.25c-0.64-0.24-1.29-0.48-1.93-0.71
		c2.32-3.29,4.52-6.74,6.57-10.29l13.85-1.57c15.67-1.78,29.1-12.56,34.22-27.48l1.8-5.26C193.41,57.25,187.54,51.89,181.97,54.38
		L181.97,54.38z M37.05,90.18C23.53,88.65,11.93,79.34,7.51,66.46l-1.8-5.26c-0.39-1.13,0.75-2.18,1.85-1.69l5.65,2.52
		c4.56,2.04,9.35-2.35,7.73-7.08l-5.53-16.11c-0.39-1.13,0.76-2.18,1.85-1.69L34,44.61c-0.02,3.89,0.91,12.38,3.33,21.53l-8.05-3.59
		c-1.42-0.63-3.08,0.01-3.71,1.42c-0.63,1.42,0,3.08,1.42,3.71l12.46,5.55c2.02,6.08,4.55,12.15,7.56,18.07L37.05,90.18z
		 M76.51,102.61c-12.7-15.55-22.6-37.55-23.77-57.44c-0.11-1.92,0.59-3.85,1.94-5.29c9.83-10.52,26.39-21.14,41.23-21.14
		s31.41,10.62,41.23,21.14c1.35,1.44,2.05,3.37,1.94,5.29c-1.18,19.88-11.06,41.89-23.77,57.44
		C102.67,100.59,89.15,100.59,76.51,102.61L76.51,102.61z M186.11,61.2l-1.8,5.26c-4.42,12.88-16.01,22.19-29.54,23.72l-9.96,1.13
		c3.01-5.92,5.55-12,7.56-18.07l12.46-5.55c1.42-0.63,2.05-2.29,1.42-3.71c-0.63-1.42-2.29-2.06-3.71-1.42l-8.05,3.59
		c2.43-9.17,3.35-17.67,3.33-21.53l16.74-7.46c1.09-0.48,2.24,0.56,1.85,1.69l-5.53,16.11c-1.62,4.73,3.17,9.11,7.73,7.08l5.65-2.52
		c0.74-0.33,1.28,0.06,1.48,0.24C185.94,59.93,186.37,60.44,186.11,61.2L186.11,61.2z M71.43,119.3c-1.52,0.31-2.5,1.8-2.18,3.32
		c0.31,1.52,1.8,2.5,3.32,2.18c14.75-3.05,31.32-3.17,46.67,0c1.53,0.32,3.01-0.67,3.32-2.18c0.31-1.52-0.66-3.01-2.18-3.32
		C104.89,116.1,87.55,115.97,71.43,119.3L71.43,119.3z M114.44,57.44h-5.2l6.17-16.95c1.46-4.01-1.52-8.26-5.78-8.26H91.21
		c-3.73,0-7.09,2.35-8.37,5.86l-7.82,21.48c-1.46,4.01,1.52,8.26,5.78,8.26h5.2l-5.69,15.62c-1.99,5.48,4.44,10.15,9.04,6.56
		l28.6-22.35C122.25,64.32,119.87,57.44,114.44,57.44L114.44,57.44z M85.9,85.59c-0.07,0.06-0.11,0.09-0.23,0
		c-0.12-0.08-0.1-0.13-0.07-0.22l5.87-16.14c1.24-3.41-1.29-7.02-4.92-7.02h-5.75c-0.37,0-0.63-0.37-0.5-0.72l7.82-21.48
		c0.47-1.29,1.71-2.16,3.09-2.16h18.41c0.37,0,0.63,0.37,0.5,0.72l-6.36,17.47c-1.24,3.41,1.29,7.03,4.92,7.03c0.06,0,5.75,0,5.81,0
		c0.03,0.02,0.06,0.1,0.05,0.13C114.52,63.24,115.37,62.56,85.9,85.59L85.9,85.59z M85.9,85.59"/>
</g>
</svg>
