<?xml version="1.0" encoding="utf-8"?>
<!-- Generator: Adobe Illustrator 26.5.0, SVG Export Plug-In . SVG Version: 6.00 Build 0)  -->
<svg version="1.1" id="Layer_1" xmlns="http://www.w3.org/2000/svg" xmlns:xlink="http://www.w3.org/1999/xlink" x="0px" y="0px"
	 viewBox="0 0 144.1 144.2" style="enable-background:new 0 0 144.1 144.2;" xml:space="preserve">
<style type="text/css">
	.st0{fill:#FFFFFF;}
</style>
<g>
	<path class="st0" d="M137.12,13.94H76.7c-3.85,0-6.97,3.12-6.97,6.97v48.81c0,3.85,3.12,6.97,6.97,6.97h9.3v6.97
		c0,1.28,1.04,2.32,2.32,2.33c0.53,0,1.04-0.18,1.45-0.51l10.98-8.79h36.37c3.85,0,6.97-3.12,6.97-6.97V20.92
		C144.1,17.07,140.98,13.94,137.12,13.94z M139.45,69.72c0,1.28-1.04,2.32-2.32,2.32H99.94c-0.53,0-1.04,0.18-1.45,0.51l-7.84,6.28
		v-4.46c0-1.28-1.04-2.32-2.32-2.32H76.7c-1.28,0-2.32-1.04-2.32-2.32V20.92c0-1.28,1.04-2.32,2.32-2.32h60.43
		c1.28,0,2.32,1.04,2.32,2.32V69.72z"/>
	<path class="st0" d="M132.48,41.83c0-1.28-1.04-2.32-2.32-2.32h-9.3c-1.28,0-2.32,1.04-2.32,2.32v20.92h-4.65V46.48
		c0-1.28-1.04-2.32-2.32-2.32h-9.3c-1.28,0-2.32,1.04-2.32,2.32v16.27h-4.65V51.13c0-1.28-1.04-2.32-2.32-2.32h-9.3
		c-1.28,0-2.32,1.04-2.32,2.32v11.62h-2.32v4.65h55.78v-4.65h-2.32V41.83z M123.18,44.16h4.65v18.59h-4.65V44.16z M104.59,48.81
		h4.65v13.94h-4.65V48.81z M85.99,53.46h4.65v9.3h-4.65V53.46z"/>
	<path class="st0" d="M95.84,37.19h18.04c0.48,0,0.96-0.15,1.35-0.43l16.27-11.62l-2.7-3.78l-15.66,11.19H95.29
		c-0.36,0-0.72,0.08-1.04,0.24l-13.94,6.97l2.08,4.16L95.84,37.19z"/>
	<path class="st0" d="M6.97,39.51c3.85,0,6.97-3.12,6.97-6.97c0-1.04-0.24-2.06-0.7-2.99l9.33-9.33c1.88,0.93,4.09,0.93,5.97,0
		l7.01,7.01c-0.45,0.93-0.69,1.95-0.7,2.99c0,3.85,3.12,6.97,6.97,6.97s6.97-3.12,6.97-6.97c0-1.04-0.24-2.06-0.7-2.99l13.98-13.98
		c0.93,0.45,1.95,0.69,2.99,0.7c3.85,0,6.97-3.12,6.97-6.97S68.93,0,65.08,0c-3.85,0-6.97,3.12-6.97,6.97c0,1.04,0.24,2.06,0.7,2.99
		L44.82,23.94c-1.88-0.93-4.09-0.93-5.97,0l-7.01-7.01c0.45-0.93,0.69-1.95,0.7-2.99c0-3.85-3.12-6.97-6.97-6.97
		s-6.97,3.12-6.97,6.97c0,1.04,0.24,2.06,0.7,2.99l-9.33,9.33c-0.93-0.45-1.95-0.69-2.99-0.7C3.12,25.57,0,28.69,0,32.54
		S3.12,39.51,6.97,39.51z M65.08,4.65c1.28,0,2.32,1.04,2.32,2.32S66.36,9.3,65.08,9.3c-1.28,0-2.32-1.04-2.32-2.32
		S63.79,4.65,65.08,4.65z M44.16,30.21c0,1.28-1.04,2.32-2.32,2.32c-1.28,0-2.32-1.04-2.32-2.32c0-1.28,1.04-2.32,2.32-2.32
		C43.12,27.89,44.16,28.93,44.16,30.21z M25.57,11.62c1.28,0,2.32,1.04,2.32,2.32s-1.04,2.32-2.32,2.32s-2.32-1.04-2.32-2.32
		S24.28,11.62,25.57,11.62z M6.97,30.21c1.28,0,2.32,1.04,2.32,2.32c0,1.28-1.04,2.32-2.32,2.32s-2.32-1.04-2.32-2.32
		C4.65,31.25,5.69,30.21,6.97,30.21z"/>
	<path class="st0" d="M86.67,89l-2.32,2.32l-15.59,15.59H51.13v-5.62c2.4-1.56,4.45-3.61,6.01-6.01h5.62c3.85,0,6.97-3.12,6.97-6.97
		v-6.97c0-3.85-3.12-6.97-6.97-6.97h-1.22l2.26-5.65c3.68-9.18-0.79-19.61-9.97-23.29c-2.12-0.85-4.38-1.28-6.66-1.28h-15.3
		c-9.89,0-17.91,8.02-17.91,17.91c0,2.28,0.43,4.54,1.28,6.65l2.26,5.65h-0.05c-4.49,0-8.13,3.64-8.13,8.13s3.64,8.13,8.13,8.13
		h2.39c1.51,4.23,4.34,7.87,8.07,10.38v6.54l-16.76,5.59C4.48,115.36-0.01,121.58,0,128.58v13.3c0,1.28,1.04,2.32,2.32,2.32H67.4
		c1.28,0,2.32-1.04,2.32-2.32v-13.03l27.14-24.87c0.03-0.02,0.03-0.06,0.06-0.08l0.01,0.01l2.32-2.32c3.47-3.47,3.47-9.11,0-12.58
		C95.78,85.53,90.15,85.53,86.67,89L86.67,89z M95.97,92.29c1.66,1.66,1.66,4.35,0,6.01l-0.68,0.68l-6.01-6.01l0.68-0.68
		C91.62,90.63,94.31,90.63,95.97,92.29z M29.59,111.89l6,6l-4.15,2.08l-3.07-7.67L29.59,111.89z M39.16,130.15h0.7l1.55,9.4H37.6
		L39.16,130.15z M40.59,125.5h-2.16l-1.92-2.87l3-1.5l3,1.5L40.59,125.5z M47.59,119.97l-4.15-2.08l6.34-6.34h1.18L47.59,119.97z
		 M62.75,79.02c1.28,0,2.32,1.04,2.32,2.32v6.97c0,1.28-1.04,2.32-2.32,2.32h-3.37c0.69-2.07,1.05-4.23,1.05-6.41v-5.21H62.75z
		 M31.86,48.81h15.3c7.33,0,13.27,5.93,13.27,13.26c0,1.69-0.32,3.36-0.95,4.93l-2,5c-3.16-0.2-5.97-2.07-7.38-4.91l-1.52-3.06
		c-0.68-1.15-2.17-1.52-3.32-0.84c-0.35,0.21-0.63,0.49-0.84,0.84l-1.53,3.06c-1.51,3.05-4.62,4.97-8.02,4.95h-13.3L19.54,67
		c-2.72-6.8,0.59-14.52,7.39-17.24C28.5,49.13,30.17,48.81,31.86,48.81z M17.43,85.99c-1.93,0-3.49-1.56-3.49-3.49
		c0-1.93,1.56-3.49,3.49-3.49h1.16v4.65c0,0.78,0.05,1.55,0.14,2.32H17.43z M23.24,83.67V76.7h11.62c4.75,0.02,9.16-2.46,11.62-6.53
		c2.03,3.36,5.42,5.67,9.3,6.33v7.73c0,2.21-0.47,4.4-1.38,6.41H39.51v4.65h11.7c-2.94,2.98-6.96,4.65-11.14,4.65H39.6
		C30.6,99.95,23.28,92.67,23.24,83.67z M39.6,104.59h0.46c2.18,0,4.35-0.36,6.42-1.05v4.74l-6.97,6.97l-6.97-6.97v-4.93
		C34.8,104.16,37.19,104.58,39.6,104.59z M4.65,128.58c0-5,3.2-9.45,7.95-11.02l11.34-3.78l4.11,10.27c0.24,0.6,0.73,1.08,1.33,1.31
		c0.27,0.1,0.55,0.15,0.83,0.15c0.36,0,0.72-0.08,1.04-0.23l1.07-0.54l2.42,3.63l-1.86,11.2H4.65V128.58z M65.83,126.12
		c-0.48,0.44-0.75,1.06-0.75,1.71v11.73H46.13l-1.86-11.2l2.42-3.63l1.07,0.54c0.32,0.16,0.68,0.25,1.05,0.24
		c0.28,0,0.56-0.05,0.83-0.15c0.61-0.23,1.09-0.71,1.33-1.31l4.99-12.48h13.77c0.62,0,1.21-0.25,1.64-0.68l14.63-14.63l5.94,5.94
		L65.83,126.12z"/>
</g>
</svg>
