<?xml version="1.0" encoding="utf-8"?>
<!-- Generator: Adobe Illustrator 26.5.0, SVG Export Plug-In . SVG Version: 6.00 Build 0)  -->
<svg version="1.1" id="Layer_1" xmlns="http://www.w3.org/2000/svg" xmlns:xlink="http://www.w3.org/1999/xlink" x="0px" y="0px"
	 viewBox="0 0 190.9 138.2" style="enable-background:new 0 0 190.9 138.2;" xml:space="preserve">
<style type="text/css">
	.st0{fill:#FFFFFF;}
</style>
<g>
	<path class="st0" d="M85.2,102.2c-1.2,0-2.2-1-2.2-2.2V63.9c0-6.9,5.6-12.5,12.4-12.5c5.4,0,10.2-3.2,12.3-8.2s0.9-10.7-2.9-14.5
		c-2.5-2.5-5.8-3.9-9.4-3.9c-1.8,0-3.5,0.3-5.1,1c-5,2.1-8.2,6.9-8.2,12.3c0,1.2-1,2.2-2.2,2.2H59.4c-1.2,0-2.2-1-2.2-2.2
		C57.3,24,65,11.1,77.5,4.5C83,1.5,89.2,0,95.5,0c7.6,0,15,2.3,21.4,6.5c11.7,7.9,18.1,21.6,16.6,35.7
		c-1.5,14.1-10.6,26.1-23.7,31.4l-1.9,0.8V100c0,1.2-1,2.2-2.2,2.2H85.2z M95.5,55.8c-4.5,0-8.2,3.7-8.2,8.2v33.9h16.3v-25
		c0-1,0.6-1.9,1.5-2.2c11.8-3.5,20.8-13.2,23.4-25.2c2.6-12-1.4-24.5-10.6-32.7c-6.2-5.5-14.2-8.5-22.5-8.5c-3.8,0-7.7,0.7-11.3,1.9
		C72.6,10.3,64.1,20.4,62,32.5L61.4,36h16.4l0.6-2.2c1.7-6.5,7-11.5,13.5-12.8c1.2-0.2,2.4-0.4,3.6-0.4c5.4,0,10.6,2.5,13.9,6.8
		c4.1,5.4,4.9,12.5,1.9,18.5C108.3,52,102.2,55.8,95.5,55.8L95.5,55.8L95.5,55.8z"/>
	<path class="st0" d="M95.5,138.2c-3.3,0-6.5-1.3-8.8-3.6C83.1,131,82,125.7,84,121s6.4-7.7,11.5-7.7c6.9,0,12.4,5.6,12.4,12.4
		c0,5-3,9.6-7.7,11.5C98.7,137.9,97.1,138.2,95.5,138.2z M95.5,117.6c-2.2,0-4.2,0.8-5.8,2.4c-2.3,2.3-3,5.8-1.8,8.9
		c1.3,3.1,4.2,5,7.5,5c4.5,0,8.2-3.7,8.2-8.2c0-3.3-2-6.3-5-7.5C97.6,117.8,96.6,117.6,95.5,117.6z"/>
	<path class="st0" d="M171.7,71.2c-0.3,0-0.5-0.2-0.5-0.5v-3.2c0-0.3,0.2-0.5,0.5-0.5h18.7c0.3,0,0.5,0.2,0.5,0.5v3.2
		c0,0.3-0.2,0.5-0.5,0.5H171.7z"/>
	<path class="st0" d="M174.8,117.9c-0.1,0-0.2,0-0.3-0.1l-14.6-11.7c-0.1-0.1-0.2-0.2-0.2-0.3c0-0.1,0-0.2,0.1-0.4l2-2.5
		c0.1-0.2,0.3-0.2,0.4-0.2c0.1,0,0.2,0,0.3,0.1l14.6,11.7c0.1,0.1,0.2,0.2,0.2,0.3c0,0.1,0,0.2-0.1,0.4l-2,2.5
		C175.1,117.9,174.9,117.9,174.8,117.9z"/>
	<path class="st0" d="M161.7,36.6c-0.1,0-0.3,0-0.4-0.2l-2-2.5c-0.2-0.2-0.1-0.6,0.1-0.7L174,21.6c0.1-0.1,0.2-0.1,0.3-0.1
		c0.1,0,0.3,0,0.4,0.2l2,2.5c0.2,0.2,0.1,0.6-0.1,0.7l-14.6,11.6C162,36.6,161.9,36.6,161.7,36.6z"/>
	<path class="st0" d="M0.5,71.2C0.2,71.2,0,71,0,70.7v-3.2C0,67.2,0.2,67,0.5,67h18.7c0.3,0,0.5,0.2,0.5,0.5v3.2
		c0,0.3-0.2,0.5-0.5,0.5H0.5z"/>
	<path class="st0" d="M15.6,118.1c-0.1,0-0.3,0-0.4-0.2l-2-2.5c-0.1-0.1-0.1-0.3-0.1-0.4s0.1-0.2,0.2-0.3l14.6-11.6
		c0.1-0.1,0.2-0.1,0.3-0.1c0.1,0,0.3,0,0.4,0.2l2,2.5c0.1,0.1,0.1,0.3,0.1,0.4c0,0.1,0,0.2-0.2,0.3L15.9,118
		C15.8,118.1,15.7,118.1,15.6,118.1z"/>
	<path class="st0" d="M28.8,35.5c-0.1,0-0.2,0-0.3-0.1L13.9,23.7c-0.2-0.2-0.3-0.5-0.1-0.7l2-2.5c0.1-0.2,0.3-0.2,0.4-0.2
		c0.1,0,0.2,0,0.3,0.1L31.2,32c0.1,0.1,0.2,0.2,0.2,0.3s0,0.2-0.1,0.4l-2,2.5C29.1,35.5,28.9,35.5,28.8,35.5z"/>
</g>
</svg>
