<?xml version="1.0" encoding="utf-8"?>
<!-- Generator: Adobe Illustrator 26.5.0, SVG Export Plug-In . SVG Version: 6.00 Build 0)  -->
<svg version="1.1" id="Layer_1" xmlns="http://www.w3.org/2000/svg" xmlns:xlink="http://www.w3.org/1999/xlink" x="0px" y="0px"
	 viewBox="0 0 133.8 143.41" style="enable-background:new 0 0 133.8 143.41;" xml:space="preserve">
<style type="text/css">
	.st0{fill:#FFFFFF;}
</style>
<g>
	<path class="st0" d="M33.25,143.41c-3.74-0.02-6.79-3.08-6.81-6.82c0-3.76,3.06-6.81,6.81-6.81h8.37l5.2-10.41H6.81
		c-3.76,0-6.81-3.06-6.81-6.81V21.23c0-3.76,3.06-6.82,6.81-6.82h6.86l0.12-0.13c1.28-1.44,3.12-2.26,5.04-2.27h2.8v-0.4
		c0-3.76,3.06-6.81,6.82-6.81h7.93l0.09-0.26C37.43,1.84,40,0.01,42.87,0h48.07c2.87,0.01,5.44,1.84,6.39,4.54l0.09,0.26h7.93
		c3.76,0,6.82,3.06,6.82,6.81v0.4h2.8c1.92,0.01,3.76,0.83,5.04,2.27l0.12,0.13h6.86c3.76,0,6.81,3.06,6.81,6.82v91.33
		c0,3.76-3.06,6.81-6.81,6.81H86.97l5.2,10.41h8.37c3.76,0,6.81,3.06,6.81,6.81c-0.02,3.74-3.08,6.8-6.82,6.81h0H33.25z
		 M33.25,133.8c-1.54,0-2.8,1.26-2.8,2.8c-0.01,0.72,0.29,1.44,0.81,1.95c0.51,0.54,1.23,0.85,1.99,0.85c0,0,67.3,0,67.3,0
		c0.74,0,1.44-0.29,1.95-0.81c0.54-0.51,0.85-1.24,0.85-1.99c0-1.54-1.26-2.8-2.8-2.8H33.25z M46.11,129.78h41.57l-5.2-10.41H51.31
		L46.11,129.78z M4.01,112.56c0,1.54,1.26,2.8,2.8,2.8h120.17c1.54,0,2.8-1.26,2.8-2.8v-7.61H23.64c-1.11,0-2.01-0.9-2.01-2.01
		c0-1.11,0.9-2.01,2.01-2.01h106.14V21.23c0-1.54-1.26-2.8-2.8-2.8h-5.2v70.09c0,3.76-3.06,6.81-6.81,6.81H18.83
		c-3.76,0-6.81-3.06-6.81-6.81V18.43h-5.2c-1.54,0-2.8,1.26-2.8,2.8v79.71h10.01c1.11,0,2.01,0.9,2.01,2.01
		c0,1.11-0.9,2.01-2.01,2.01H4.01V112.56z M18.83,16.03c-1.54,0-2.8,1.26-2.8,2.8v69.7c0,1.54,1.26,2.8,2.8,2.8h96.13
		c1.54,0,2.8-1.26,2.8-2.8v-69.7c0-1.54-1.26-2.8-2.8-2.8h-2.8v62.88c0,3.76-3.06,6.81-6.82,6.81H28.44c-3.76,0-6.82-3.06-6.82-6.81
		V16.03H18.83z M74.11,76.12c-2.87,0-5.2,2.33-5.2,5.2v0.4h36.45c1.54,0,2.8-1.26,2.8-2.8V75.5l-0.53,0.2
		c-0.73,0.27-1.49,0.41-2.27,0.42H74.11z M25.64,78.91c0,1.54,1.26,2.8,2.8,2.8h36.45v-0.4c0-2.87-2.33-5.2-5.2-5.2H28.44
		c-0.77-0.01-1.54-0.15-2.27-0.42l-0.53-0.2V78.91z M68.9,73.76l0.6-0.36c1.39-0.84,2.98-1.28,4.61-1.29h31.24
		c1.54,0,2.8-1.26,2.8-2.8V11.62c0-1.54-1.26-2.8-2.8-2.8h-7.61v31.64c0,3.76-3.06,6.81-6.81,6.81H68.9V73.76z M28.44,8.82
		c-1.54,0-2.8,1.26-2.8,2.8V69.3c0,1.54,1.26,2.8,2.8,2.8h31.24c1.62,0.01,3.21,0.46,4.6,1.29l0.6,0.36V50.15l-9.4,8.06
		c-0.81,0.7-1.85,1.08-2.92,1.08c-0.66,0-1.3-0.14-1.89-0.42c-1.6-0.73-2.62-2.33-2.61-4.08v-7.51h-5.2c-3.76,0-6.81-3.06-6.81-6.81
		V8.82H28.44z M52.08,55.64l9.82-8.27l-0.59-0.25c-0.87-0.37-1.36-1.32-1.18-2.25c0.19-0.93,1.01-1.6,1.96-1.61h4.78
		c0.07,0.01,0.14,0.02,0.22,0.04l0.1,0.03l0.1-0.03c0.08-0.02,0.16-0.03,0.24-0.04h23.41c1.54,0,2.8-1.26,2.8-2.8V6.81
		c0-1.54-1.26-2.8-2.8-2.8H42.86c-1.54,0-2.8,1.26-2.8,2.8v33.65c0,1.54,1.26,2.8,2.8,2.8h9.61c1.11,0,2.01,0.9,2.01,2.01
		c0,1.11-0.9,2.01-2.01,2.01h-0.4V55.64z"/>
	<path class="st0" d="M33.25,56.89c-1.11,0-2.01-0.9-2.01-2.01c0-1.11,0.9-2.01,2.01-2.01h7.21c1.11,0,2.01,0.9,2.01,2.01
		c0,1.11-0.9,2.01-2.01,2.01H33.25z"/>
	<path class="st0" d="M33.25,66.5c-1.11,0-2.01-0.9-2.01-2.01c0-1.11,0.9-2.01,2.01-2.01h7.21c1.11,0,2.01,0.9,2.01,2.01
		c0,1.11-0.9,2.01-2.01,2.01H33.25z"/>
	<path class="st0" d="M76.51,56.89c-1.11,0-2.01-0.9-2.01-2.01c0-1.11,0.9-2.01,2.01-2.01h24.03c1.11,0,2.01,0.9,2.01,2.01
		c0,1.11-0.9,2.01-2.01,2.01H76.51z"/>
	<path class="st0" d="M76.51,66.5c-1.11,0-2.01-0.9-2.01-2.01c0-1.11,0.9-2.01,2.01-2.01h24.03c1.11,0,2.01,0.9,2.01,2.01
		c0,1.11-0.9,2.01-2.01,2.01H76.51z"/>
	<path class="st0" d="M47.67,35.26c-1.11,0-2.01-0.9-2.01-2.01c0-1.11,0.9-2.01,2.01-2.01h12.02c1.11,0,2.01,0.9,2.01,2.01
		c0,1.11-0.9,2.01-2.01,2.01H47.67z"/>
	<path class="st0" d="M47.67,25.64c-1.11,0-2.01-0.9-2.01-2.01s0.9-2.01,2.01-2.01H71.7c1.11,0,2.01,0.9,2.01,2.01
		s-0.9,2.01-2.01,2.01H47.67z"/>
	<path class="st0" d="M81.32,25.64c-1.11,0-2.01-0.9-2.01-2.01s0.9-2.01,2.01-2.01h4.81c1.11,0,2.01,0.9,2.01,2.01
		s-0.9,2.01-2.01,2.01H81.32z"/>
	<path class="st0" d="M62.09,16.03c-1.11,0-2.01-0.9-2.01-2.01c0-1.11,0.9-2.01,2.01-2.01h24.03c1.11,0,2.01,0.9,2.01,2.01
		c0,1.11-0.9,2.01-2.01,2.01H62.09z"/>
	<path class="st0" d="M47.67,16.03c-1.11,0-2.01-0.9-2.01-2.01c0-1.11,0.9-2.01,2.01-2.01h4.81c1.11,0,2.01,0.9,2.01,2.01
		c0,1.11-0.9,2.01-2.01,2.01H47.67z"/>
</g>
</svg>
