<svg xmlns="http://www.w3.org/2000/svg" width="24.099" height="19.573" viewBox="0 0 24.099 19.573">
  <path id="Icon_awesome-twitter" data-name="Icon awesome-twitter" d="M21.622,8.259c.015.214.015.428.015.642A13.956,13.956,0,0,1,7.585,22.954,13.957,13.957,0,0,1,0,20.737a10.218,10.218,0,0,0,1.193.061,9.892,9.892,0,0,0,6.132-2.11,4.948,4.948,0,0,1-4.618-3.425,6.229,6.229,0,0,0,.933.076,5.224,5.224,0,0,0,1.3-.168A4.94,4.94,0,0,1,.979,10.323v-.061a4.974,4.974,0,0,0,2.233.627A4.946,4.946,0,0,1,1.682,4.283,14.039,14.039,0,0,0,11.866,9.451a5.576,5.576,0,0,1-.122-1.132A4.944,4.944,0,0,1,20.292,4.94a9.724,9.724,0,0,0,3.135-1.193A4.926,4.926,0,0,1,21.255,6.47,9.9,9.9,0,0,0,24.1,5.705,10.617,10.617,0,0,1,21.622,8.259Z" transform="translate(0 -3.381)" fill="#fff"/>
</svg>
